<svg xmlns="http://www.w3.org/2000/svg" xmlns:xlink="http://www.w3.org/1999/xlink" version="1.1" viewBox="0 0 192 192" width="17px" height="17px"><g fill="none" fill-rule="nonzero" stroke="none" stroke-width="1" stroke-linecap="butt" stroke-linejoin="miter" stroke-miterlimit="10" stroke-dasharray="" stroke-dashoffset="0" font-family="none" font-weight="none" font-size="none" text-anchor="none" style="mix-blend-mode: normal"><path d="M0,192v-192h192v192z" fill="none"/><g fill="#43B581"><path d="M96,16c-44.112,0 -80,35.888 -80,80c0,44.112 35.888,80 80,80c44.112,0 80,-35.888 80,-80c0,-9.008 -1.56813,-17.64638 -4.32813,-25.73438l-12.95312,12.95313c0.84,4.128 1.28125,8.40525 1.28125,12.78125c0,35.288 -28.712,64 -64,64c-35.288,0 -64,-28.712 -64,-64c0,-35.288 28.712,-64 64,-64c13.064,0 25.21538,3.95112 35.35938,10.70312l11.45312,-11.45312c-13.184,-9.552 -29.3325,-15.25 -46.8125,-15.25zM170.34375,26.34375l-82.34375,82.34375l-26.34375,-26.34375l-11.3125,11.3125l37.65625,37.65625l93.65625,-93.65625z"/></g></g></svg>